<svg xmlns="http://www.w3.org/2000/svg" viewBox="0 0 1200 900" role="img" aria-label="Suede retro runner">
  <defs>
    <linearGradient id="bg" x1="0" y1="0" x2="1" y2="1">
      <stop offset="0%" stop-color="hsl(333, 76%, 16%)" />
      <stop offset="100%" stop-color="hsl(185, 78%, 34%)" />
    </linearGradient>
    <linearGradient id="panel" x1="0" y1="0" x2="1" y2="0">
      <stop offset="0%" stop-color="white" stop-opacity="0.14" />
      <stop offset="100%" stop-color="white" stop-opacity="0.04" />
    </linearGradient>
  </defs>
  <rect width="1200" height="900" fill="url(#bg)" rx="44" />
  <circle cx="190" cy="170" r="160" fill="hsl(321, 88%, 66%)" opacity="0.12" />
  <circle cx="1030" cy="760" r="220" fill="hsl(321, 88%, 66%)" opacity="0.1" />
  <rect x="76" y="72" width="1048" height="756" rx="36" fill="#0f172a" fill-opacity="0.2" stroke="white" stroke-opacity="0.12" />
  <rect x="96" y="94" width="262" height="56" rx="28" fill="white" fill-opacity="0.14" />
  <text x="130" y="130" fill="white" font-size="28" font-family="Arial, sans-serif" font-weight="700" letter-spacing="3">SHOES</text>
  <text x="130" y="720" fill="white" font-size="64" font-family="Arial, sans-serif" font-weight="700">Suede retro runner</text>
  <text x="130" y="772" fill="white" fill-opacity="0.82" font-size="30" font-family="Arial, sans-serif">Adidas | From Denim Sprint Club</text>
  <text x="1030" y="130" text-anchor="end" fill="white" font-size="42" font-family="Arial, sans-serif" font-weight="700">$88</text>
  <g transform="translate(0 0)"><path d="M290 584 C364 520 446 488 532 494 C620 500 706 544 792 556 C852 564 906 590 930 626 L324 626 C290 626 258 604 248 572 C244 558 262 548 290 584 Z" fill="none" stroke="hsl(321, 88%, 66%)" stroke-width="24" stroke-linejoin="round"/><path d="M396 544 C450 528 516 528 582 544 C646 558 706 586 756 594" fill="none" stroke="white" stroke-width="16" stroke-linecap="round" opacity="0.86"/><path d="M430 566 L520 552 L618 572" fill="none" stroke="white" stroke-width="12" stroke-linecap="round" stroke-linejoin="round" opacity="0.64"/><line x1="326" y1="626" x2="932" y2="626" stroke="white" stroke-width="10" opacity="0.45"/></g>
</svg>