<svg xmlns="http://www.w3.org/2000/svg" viewBox="0 0 1200 900" role="img" aria-label="Minimal buckle sandal">
  <defs>
    <linearGradient id="bg" x1="0" y1="0" x2="1" y2="1">
      <stop offset="0%" stop-color="hsl(15, 76%, 16%)" />
      <stop offset="100%" stop-color="hsl(192, 78%, 34%)" />
    </linearGradient>
    <linearGradient id="panel" x1="0" y1="0" x2="1" y2="0">
      <stop offset="0%" stop-color="white" stop-opacity="0.14" />
      <stop offset="100%" stop-color="white" stop-opacity="0.04" />
    </linearGradient>
  </defs>
  <rect width="1200" height="900" fill="url(#bg)" rx="44" />
  <circle cx="190" cy="170" r="160" fill="hsl(258, 88%, 66%)" opacity="0.12" />
  <circle cx="1030" cy="760" r="220" fill="hsl(258, 88%, 66%)" opacity="0.1" />
  <rect x="76" y="72" width="1048" height="756" rx="36" fill="#0f172a" fill-opacity="0.2" stroke="white" stroke-opacity="0.12" />
  <rect x="96" y="94" width="262" height="56" rx="28" fill="white" fill-opacity="0.14" />
  <text x="130" y="130" fill="white" font-size="28" font-family="Arial, sans-serif" font-weight="700" letter-spacing="3">SHOES</text>
  <text x="130" y="720" fill="white" font-size="64" font-family="Arial, sans-serif" font-weight="700">Minimal buckle sandal</text>
  <text x="130" y="772" fill="white" fill-opacity="0.82" font-size="30" font-family="Arial, sans-serif">Charles &amp; Keith | From Black Abaya Studio Classic</text>
  <text x="1030" y="130" text-anchor="end" fill="white" font-size="42" font-family="Arial, sans-serif" font-weight="700">$58</text>
  <g transform="translate(0 0)"><path d="M318 626 C404 588 506 568 618 572 C738 576 834 594 906 626" fill="none" stroke="hsl(258, 88%, 66%)" stroke-width="24" stroke-linecap="round"/><path d="M452 474 C522 508 572 552 606 624" fill="none" stroke="white" stroke-width="18" stroke-linecap="round"/><path d="M664 456 C724 494 770 542 808 620" fill="none" stroke="white" stroke-width="18" stroke-linecap="round"/><path d="M378 594 C474 564 580 554 698 564 C794 572 866 592 920 620" fill="none" stroke="white" stroke-width="14" stroke-linecap="round" opacity="0.75"/></g>
</svg>