<svg xmlns="http://www.w3.org/2000/svg" viewBox="0 0 1200 900" role="img" aria-label="Leather derby">
  <defs>
    <linearGradient id="bg" x1="0" y1="0" x2="1" y2="1">
      <stop offset="0%" stop-color="hsl(178, 76%, 16%)" />
      <stop offset="100%" stop-color="hsl(85, 78%, 34%)" />
    </linearGradient>
    <linearGradient id="panel" x1="0" y1="0" x2="1" y2="0">
      <stop offset="0%" stop-color="white" stop-opacity="0.14" />
      <stop offset="100%" stop-color="white" stop-opacity="0.04" />
    </linearGradient>
  </defs>
  <rect width="1200" height="900" fill="url(#bg)" rx="44" />
  <circle cx="190" cy="170" r="160" fill="hsl(331, 88%, 66%)" opacity="0.12" />
  <circle cx="1030" cy="760" r="220" fill="hsl(331, 88%, 66%)" opacity="0.1" />
  <rect x="76" y="72" width="1048" height="756" rx="36" fill="#0f172a" fill-opacity="0.2" stroke="white" stroke-opacity="0.12" />
  <rect x="96" y="94" width="262" height="56" rx="28" fill="white" fill-opacity="0.14" />
  <text x="130" y="130" fill="white" font-size="28" font-family="Arial, sans-serif" font-weight="700" letter-spacing="3">SHOES</text>
  <text x="130" y="720" fill="white" font-size="64" font-family="Arial, sans-serif" font-weight="700">Leather derby</text>
  <text x="130" y="772" fill="white" fill-opacity="0.82" font-size="30" font-family="Arial, sans-serif">Vagabond | From Monochrome Runway Reset</text>
  <text x="1030" y="130" text-anchor="end" fill="white" font-size="42" font-family="Arial, sans-serif" font-weight="700">$80</text>
  <g transform="translate(0 0)"><path d="M332 590 C398 520 474 490 558 496 C632 502 710 536 790 544 C850 550 900 578 926 626 L350 626 C316 626 286 602 276 572 C272 560 290 548 332 590 Z" fill="none" stroke="hsl(331, 88%, 66%)" stroke-width="24" stroke-linejoin="round"/><path d="M474 528 C526 522 576 534 620 560" fill="none" stroke="white" stroke-width="16" stroke-linecap="round" opacity="0.9"/><path d="M450 548 L512 540 L540 568" fill="none" stroke="white" stroke-width="12" stroke-linecap="round" stroke-linejoin="round" opacity="0.72"/><line x1="350" y1="626" x2="930" y2="626" stroke="white" stroke-width="10" opacity="0.45"/></g>
</svg>