<svg xmlns="http://www.w3.org/2000/svg" viewBox="0 0 1200 900" role="img" aria-label="Soft leather loafer">
  <defs>
    <linearGradient id="bg" x1="0" y1="0" x2="1" y2="1">
      <stop offset="0%" stop-color="hsl(212, 76%, 16%)" />
      <stop offset="100%" stop-color="hsl(50, 78%, 34%)" />
    </linearGradient>
    <linearGradient id="panel" x1="0" y1="0" x2="1" y2="0">
      <stop offset="0%" stop-color="white" stop-opacity="0.14" />
      <stop offset="100%" stop-color="white" stop-opacity="0.04" />
    </linearGradient>
  </defs>
  <rect width="1200" height="900" fill="url(#bg)" rx="44" />
  <circle cx="190" cy="170" r="160" fill="hsl(14, 88%, 66%)" opacity="0.12" />
  <circle cx="1030" cy="760" r="220" fill="hsl(14, 88%, 66%)" opacity="0.1" />
  <rect x="76" y="72" width="1048" height="756" rx="36" fill="#0f172a" fill-opacity="0.2" stroke="white" stroke-opacity="0.12" />
  <rect x="96" y="94" width="262" height="56" rx="28" fill="white" fill-opacity="0.14" />
  <text x="130" y="130" fill="white" font-size="28" font-family="Arial, sans-serif" font-weight="700" letter-spacing="3">SHOES</text>
  <text x="130" y="720" fill="white" font-size="64" font-family="Arial, sans-serif" font-weight="700">Soft leather loafer</text>
  <text x="130" y="772" fill="white" fill-opacity="0.82" font-size="30" font-family="Arial, sans-serif">COS | From City Knit Neutral</text>
  <text x="1030" y="130" text-anchor="end" fill="white" font-size="42" font-family="Arial, sans-serif" font-weight="700">$66</text>
  <g transform="translate(0 0)"><path d="M320 590 C394 532 480 506 574 514 C654 520 734 552 804 560 C860 566 906 592 928 626 L346 626 C312 626 280 604 268 572 C264 560 282 550 320 590 Z" fill="none" stroke="hsl(14, 88%, 66%)" stroke-width="24" stroke-linejoin="round"/><path d="M496 546 C546 540 604 548 658 570" fill="none" stroke="white" stroke-width="16" stroke-linecap="round" opacity="0.84"/><path d="M446 562 C502 582 556 594 612 596" fill="none" stroke="white" stroke-width="12" stroke-linecap="round" opacity="0.58"/><line x1="344" y1="626" x2="932" y2="626" stroke="white" stroke-width="10" opacity="0.45"/></g>
</svg>