<svg xmlns="http://www.w3.org/2000/svg" viewBox="0 0 1200 900" role="img" aria-label="Pearl dress watch">
  <defs>
    <linearGradient id="bg" x1="0" y1="0" x2="1" y2="1">
      <stop offset="0%" stop-color="hsl(158, 76%, 16%)" />
      <stop offset="100%" stop-color="hsl(186, 78%, 34%)" />
    </linearGradient>
    <linearGradient id="panel" x1="0" y1="0" x2="1" y2="0">
      <stop offset="0%" stop-color="white" stop-opacity="0.14" />
      <stop offset="100%" stop-color="white" stop-opacity="0.04" />
    </linearGradient>
  </defs>
  <rect width="1200" height="900" fill="url(#bg)" rx="44" />
  <circle cx="190" cy="170" r="160" fill="hsl(170, 88%, 66%)" opacity="0.12" />
  <circle cx="1030" cy="760" r="220" fill="hsl(170, 88%, 66%)" opacity="0.1" />
  <rect x="76" y="72" width="1048" height="756" rx="36" fill="#0f172a" fill-opacity="0.2" stroke="white" stroke-opacity="0.12" />
  <rect x="96" y="94" width="262" height="56" rx="28" fill="white" fill-opacity="0.14" />
  <text x="130" y="130" fill="white" font-size="28" font-family="Arial, sans-serif" font-weight="700" letter-spacing="3">WATCHES</text>
  <text x="130" y="720" fill="white" font-size="64" font-family="Arial, sans-serif" font-weight="700">Pearl dress watch</text>
  <text x="130" y="772" fill="white" fill-opacity="0.82" font-size="30" font-family="Arial, sans-serif">Fossil | From After-Hours Satin</text>
  <text x="1030" y="130" text-anchor="end" fill="white" font-size="42" font-family="Arial, sans-serif" font-weight="700">$72</text>
  <g transform="translate(0 0)"><rect x="520" y="120" width="160" height="160" rx="36" fill="none" stroke="white" stroke-width="20" opacity="0.7"/><rect x="520" y="560" width="160" height="160" rx="36" fill="none" stroke="white" stroke-width="20" opacity="0.7"/><circle cx="600" cy="420" r="150" fill="none" stroke="hsl(170, 88%, 66%)" stroke-width="24"/><circle cx="600" cy="420" r="96" fill="none" stroke="white" stroke-width="10" opacity="0.85"/><line x1="600" y1="420" x2="600" y2="340" stroke="white" stroke-width="16" stroke-linecap="round"/><line x1="600" y1="420" x2="666" y2="456" stroke="white" stroke-width="14" stroke-linecap="round"/></g>
</svg>